<?xml version="1.0" encoding="iso-8859-1"?>
<!-- Generator: Adobe Illustrator 19.0.0, SVG Export Plug-In . SVG Version: 6.00 Build 0)  -->
<svg xmlns="http://www.w3.org/2000/svg" xmlns:xlink="http://www.w3.org/1999/xlink" version="1.1" id="Layer_1" x="0px" y="0px" viewBox="0 0 512 512" style="enable-background:new 0 0 512 512;" xml:space="preserve" width="512px" height="512px">
<g>
	<g>
		<path d="M444.988,169.384L512,102.373l-23.624-23.624l-59.516,59.516c-7.037-10.797-15.352-21.098-24.691-30.438    c-9.338-9.338-19.637-17.651-30.433-24.687l59.516-59.516L409.627,0l-67.012,67.012c-7.109-2.773-14.244-4.947-21.292-6.451    c-39.24-8.37-75.683,2.9-105.38,32.596c-27.39,27.39-32.903,59.777-30.208,92.58c-32.803-2.696-65.191,2.819-92.579,30.208    c-29.697,29.697-40.97,66.137-32.597,105.38c1.503,7.048,3.678,14.184,6.451,21.293L0,409.627l23.624,23.624l59.516-59.514    c7.036,10.795,15.35,21.095,24.687,30.432c9.339,9.339,19.64,17.654,30.437,24.691l-59.516,59.516L102.372,512l67.012-67.012    c7.109,2.773,14.245,4.947,21.293,6.451c8.422,1.797,16.707,2.69,24.833,2.69c29.734,0,57.224-11.96,80.547-35.285    c27.39-27.39,32.904-59.777,30.208-92.58c32.803,2.696,65.191-2.819,92.58-30.208c29.697-29.697,40.969-66.137,32.596-105.38    C449.936,183.628,447.761,176.493,444.988,169.384z M93.626,316.002c-0.127-0.55-0.274-1.103-0.391-1.649    c-5.978-28.02,1.943-53.182,23.546-74.784c15.772-15.772,34.206-21.191,54.815-21.191c6.244,0,12.693,0.507,19.322,1.365    c2.025,9.771,4.362,19.439,6.646,28.875c1.675,6.92,3.364,13.904,4.926,20.879c-33.595-2.095-66.95,4.593-96.013,33.655    L93.626,316.002z M185.224,381.899L162.5,404.623c-10.977-6.443-21.567-14.597-31.049-24.079    c-9.48-9.481-17.633-20.069-24.074-31.045l22.724-22.724c16.081-16.081,34.881-23.781,59.162-24.234    c6.238-0.12,12.666,0.254,19.224,0.971c0.719,6.558,1.087,12.987,0.971,19.224C209.007,347.018,201.307,365.818,185.224,381.899z     M272.432,395.221c-21.603,21.603-46.764,29.526-74.784,23.546c-0.548-0.117-1.1-0.264-1.65-0.392l12.852-12.852    c29.066-29.066,35.753-62.409,33.655-96.013c6.975,1.56,13.959,3.251,20.879,4.926c9.436,2.283,19.102,4.621,28.873,6.646    C295.947,349.584,292.983,374.67,272.432,395.221z M226.661,226.66c4.635,1.087,9.335,2.223,14.098,3.376    c10.954,2.652,22.199,5.372,33.58,7.624c2.251,11.383,4.973,22.626,7.623,33.58c1.153,4.764,2.289,9.464,3.376,14.098    c-4.634-1.087-9.334-2.223-14.097-3.375c-10.954-2.652-22.199-5.372-33.582-7.624c-2.251-11.383-4.971-22.626-7.623-33.58    C228.884,235.995,227.748,231.295,226.661,226.66z M269.495,202.489c-6.975-1.56-13.959-3.251-20.878-4.926    c-9.436-2.284-19.103-4.622-28.874-6.646c-3.691-28.501-0.726-53.587,19.824-74.138c21.602-21.601,46.763-29.521,74.784-23.545    c0.548,0.117,1.099,0.264,1.648,0.392l-12.851,12.851C274.084,135.542,267.396,168.887,269.495,202.489z M302.541,189.263    c0.451-24.281,8.151-43.081,24.233-59.162l22.724-22.724c10.976,6.441,21.566,14.594,31.046,24.074    c9.482,9.482,17.636,20.072,24.079,31.05l-22.724,22.724c-16.081,16.081-34.881,23.781-59.162,24.233    c-6.241,0.111-12.668-0.254-19.224-0.971C302.793,201.93,302.424,195.5,302.541,189.263z M395.221,272.432    c-20.549,20.551-45.637,23.515-74.138,19.824c-2.025-9.771-4.362-19.438-6.646-28.874c-1.675-6.92-3.364-13.904-4.926-20.879    c33.592,2.095,66.95-4.592,96.013-33.654l12.851-12.851c0.128,0.549,0.275,1.101,0.392,1.648    C424.745,225.669,416.823,250.83,395.221,272.432z" fill="#D1BE5F"/>
	</g>
</g>
<g>
</g>
<g>
</g>
<g>
</g>
<g>
</g>
<g>
</g>
<g>
</g>
<g>
</g>
<g>
</g>
<g>
</g>
<g>
</g>
<g>
</g>
<g>
</g>
<g>
</g>
<g>
</g>
<g>
</g>
</svg>
