<svg version="1.1" id="Capa_1" xmlns="http://www.w3.org/2000/svg" xmlns:xlink="http://www.w3.org/1999/xlink" x="0px" y="0px" viewBox="0 0 512 512" style="enable-background:new 0 0 512 512;" xml:space="preserve" width="512" height="512" class=""><g><path style="fill:#D1BE5F" d="M352,48.262c18.58,0,34.01,7.14,45.01,20.41l41.03,46.22l22.625,120.18l-84.603-93.481L354.504,246  L256,321V48.262C256,48.262,352,48.262,352,48.262z" data-original="#F93B0F" class="" data-old_color="#d1be5f"></path><polygon style="fill:#896806" points="438,345.066 498,345.066 498.04,315.066 468.04,285.066 438.04,315.066 " data-original="#480306" class="" data-old_color="#8A6806"></polygon><polygon style="fill:#97872D" points="498,182.162 498,315.066 438.04,315.066 438.04,114.892 " data-original="#D42E08" class="active-path" data-old_color="#96862D"></polygon><path style="fill:#D1BE5F" d="M160,48.262c-18.58,0-34.01,7.14-45.01,20.41l-41.03,46.22l-22.625,120.18l84.603-93.481L157.496,246  L256,321V48.262C256,48.262,160,48.262,160,48.262z" data-original="#FA623F" class="" data-old_color="#d1be5f"></path><path style="fill:#D1BE5F" d="M157.496,276l-43.934,149.645C99.619,473.14,128.71,512,178.21,512H226v-30l30-221L157.496,276z" data-original="#F93B0F" class="" data-old_color="#d1be5f"></path><path style="fill:#97872D" d="M354.504,276l43.934,149.645C412.381,473.14,383.29,512,333.79,512H286v-30l-30-221L354.504,276z" data-original="#D42E08" class="active-path" data-old_color="#96862D"></path><polygon style="fill:#8C7D33" points="286,482 256,482 236,68.42 286,68.42 " data-original="#8B2613" class="" data-old_color="#8B2613"></polygon><rect x="226" y="68.42" style="fill:#97872D" width="30" height="413.58" data-original="#D42E08" class="active-path" data-old_color="#96862D"></rect><polygon style="fill:#896806" points="338.5,0 316.5,86.053 256,108 223,54 256,0 " data-original="#480306" class="" data-old_color="#8A6806"></polygon><polygon style="fill:#8C7D33" points="256,0 256,108 195.5,86.053 173.5,0 " data-original="#8B2613" class="" data-old_color="#8B2613"></polygon><polygon style="fill:#D1BE5F" points="173.5,0 256,108 173.5,108 " data-original="#F93B0F" class="" data-old_color="#d1be5f"></polygon><polygon style="fill:#97872D" points="338.5,0 338.5,108 256,108 " data-original="#D42E08" class="active-path" data-old_color="#96862D"></polygon><polygon style="fill:#8C7D33" points="74,345.066 14,345.066 13.96,315.066 43.96,285.066 73.96,315.066 " data-original="#8B2613" class="" data-old_color="#8B2613"></polygon><polygon style="fill:#D1BE5F" points="14,182.162 14,315.066 73.96,315.066 73.96,114.892 " data-original="#F93B0F" class="" data-old_color="#d1be5f"></polygon><polygon style="fill:#896806" points="354.504,246 354.504,276 256,276 236,261 256,246 " data-original="#480306" class="" data-old_color="#8A6806"></polygon><rect x="157.5" y="246" style="fill:#8C7D33" width="98.5" height="30" data-original="#8B2613" class="" data-old_color="#8B2613"></rect></g> </svg>
