<svg version="1.1" id="Capa_1" xmlns="http://www.w3.org/2000/svg" xmlns:xlink="http://www.w3.org/1999/xlink" x="0px" y="0px" viewBox="0 0 512 512" style="enable-background:new 0 0 512 512;" xml:space="preserve" width="512" height="512" class=""><g><path style="fill:#F0F4F7;" d="M415.999,512H96.001C71.187,512,51,491.813,51,467V116.734c0-8.284,6.716-15,15-15h380  c8.284,0,15,6.716,15,15V467C461,491.813,440.813,512,415.999,512z" data-original="#F0F4F7"></path><path style="fill:#C6D5DB;" d="M446,101.734H256V512h160c24.814,0,45-20.187,45-45V116.734C461,108.45,454.284,101.734,446,101.734z  " data-original="#C6D5DB" class=""></path><g>
	<path style="fill:#D1BE5F" d="M461,131.734H51V45C51,20.147,71.147,0,96.001,0H416c24.853,0,45,20.147,45,45V131.734z" data-original="#40C4FF" class="" data-old_color="#d1be5f"></path>
	<path style="fill:#D1BE5F" d="M255.998,437c-71.682,0-130-58.317-130-130s58.318-130,130-130s130,58.317,130,130   S327.679,437,255.998,437z" data-original="#40C4FF" class="" data-old_color="#d1be5f"></path>
</g><path style="fill:#8C7D33" d="M461,45c0-24.853-20.147-45-45-45H256v131.734h205V45z" data-original="#32A4EA" class="" data-old_color="#32A4EA"></path><g>
	<circle style="fill:#FDD747;" cx="371" cy="66" r="15" data-original="#FDD747" class=""></circle>
	<circle style="fill:#FDD747;" cx="311" cy="66" r="15" data-original="#FDD747" class=""></circle>
</g><g>
	<path style="fill:#8C7D33" d="M385.997,307c0-71.682-58.317-129.999-129.997-130v260C327.68,436.999,385.997,378.682,385.997,307z   " data-original="#32A4EA" class="" data-old_color="#32A4EA"></path>
	<path style="fill:#8C7D33" d="M256,377c-38.597,0-69.998-31.401-69.998-70s31.401-70,69.998-70s69.998,31.401,69.998,70   S294.597,377,256,377z" data-original="#32A4EA" class="" data-old_color="#32A4EA"></path>
</g><path style="fill:#D1BE5F" d="M256,237c-0.001,0-0.002,0-0.002,0l-0.001,140h0.002c38.597,0,69.998-31.401,69.998-70  S294.597,237,256,237z" data-original="#2385D5" class="active-path" data-old_color="#d1be5f"></path></g> </svg>
