<svg version="1.1" id="Layer_1" xmlns="http://www.w3.org/2000/svg" xmlns:xlink="http://www.w3.org/1999/xlink" x="0px" y="0px" viewBox="0 0 512 512" style="enable-background:new 0 0 512 512;" xml:space="preserve" width="512" height="512" class=""><g><polygon style="fill:#D1BE5F" points="416.135,164.363 361.667,503.83 150.331,503.83 106.756,164.363 " data-original="#67C7A2" class="" data-old_color="#d1be5f"></polygon><g>
	<path style="fill:#8C7D33" d="M432.269,8.17v479.123c0,9.096-7.439,16.536-16.536,16.536h-54.065V164.363V8.17H432.269z" data-original="#38A287" class="" data-old_color="#38A287"></path>
	<path style="fill:#8C7D33" d="M150.331,164.363V503.83H96.266c-9.097,0-16.538-7.44-16.538-16.536V8.17h70.603V164.363z" data-original="#38A287" class="" data-old_color="#38A287"></path>
</g><path d="M263.074,251.294c-1.46-2.527-4.156-4.085-7.075-4.085s-5.616,1.558-7.075,4.085l-59.93,103.801  c-1.46,2.527-1.46,5.643,0,8.17c1.46,2.527,4.156,4.085,7.075,4.085h49.917l-5.022,5.24c-3.122,3.257-3.014,8.429,0.244,11.552  c1.584,1.517,3.62,2.272,5.653,2.272c2.149,0,4.294-0.842,5.899-2.516l18.274-19.064c0.064-0.066,0.118-0.138,0.179-0.206  c0.099-0.11,0.198-0.219,0.291-0.334c0.079-0.099,0.154-0.203,0.228-0.305c0.081-0.109,0.16-0.218,0.235-0.33  c0.073-0.112,0.139-0.227,0.208-0.341c0.066-0.112,0.132-0.222,0.193-0.338c0.063-0.118,0.117-0.239,0.173-0.359  c0.056-0.118,0.111-0.235,0.161-0.356c0.049-0.121,0.09-0.244,0.134-0.367c0.044-0.124,0.089-0.249,0.127-0.377  c0.038-0.126,0.066-0.255,0.099-0.383c0.03-0.127,0.066-0.252,0.09-0.381c0.029-0.148,0.048-0.296,0.069-0.446  c0.016-0.111,0.036-0.221,0.047-0.333c0.052-0.529,0.052-1.063,0-1.593c-0.011-0.113-0.03-0.222-0.047-0.333  c-0.021-0.149-0.038-0.297-0.069-0.446c-0.024-0.13-0.06-0.254-0.09-0.381c-0.032-0.127-0.061-0.256-0.099-0.383  c-0.038-0.127-0.084-0.252-0.127-0.377c-0.044-0.123-0.085-0.246-0.134-0.367c-0.05-0.121-0.106-0.239-0.161-0.356  c-0.057-0.121-0.111-0.241-0.173-0.359c-0.061-0.114-0.126-0.225-0.193-0.338c-0.069-0.114-0.134-0.229-0.208-0.341  c-0.074-0.112-0.155-0.221-0.235-0.33c-0.074-0.102-0.148-0.206-0.228-0.305c-0.093-0.117-0.192-0.224-0.291-0.334  c-0.061-0.069-0.114-0.139-0.179-0.206l-18.274-19.064c-3.121-3.257-8.294-3.367-11.552-0.244  c-3.257,3.122-3.366,8.294-0.244,11.552l5.022,5.24H210.22l45.779-79.29l45.778,79.29h-6.727c-4.513,0-8.17,3.658-8.17,8.17  c0,4.512,3.657,8.17,8.17,8.17h20.878c2.919,0,5.616-1.558,7.075-4.085c1.46-2.527,1.46-5.643,0-8.17L263.074,251.294z" data-original="#000000" class="active-path" style="fill:#555555" data-old_color="#111111"></path><path d="M361.667,189.98c-4.513,0-8.17,3.658-8.17,8.17v270.003c0,4.512,3.657,8.17,8.17,8.17c4.513,0,8.17-3.658,8.17-8.17V198.151  C369.837,193.638,366.18,189.98,361.667,189.98z" data-original="#000000" class="active-path" style="fill:#555555" data-old_color="#111111"></path><path d="M150.331,189.98c-4.513,0-8.17,3.658-8.17,8.17v32.681c0,4.512,3.657,8.17,8.17,8.17c4.513,0,8.17-3.658,8.17-8.17v-32.681  C158.501,193.638,154.844,189.98,150.331,189.98z" data-original="#000000" class="active-path" style="fill:#555555" data-old_color="#111111"></path><path d="M150.331,255.342c-4.513,0-8.17,3.658-8.17,8.17v204.641c0,4.512,3.657,8.17,8.17,8.17c4.513,0,8.17-3.658,8.17-8.17  V263.512C158.501,259,154.844,255.342,150.331,255.342z" data-original="#000000" class="active-path" style="fill:#555555" data-old_color="#111111"></path><path d="M432.274,0h-70.607c-4.513,0-8.17,3.658-8.17,8.17v148.021H158.501V8.17c0-4.512-3.657-8.17-8.17-8.17H79.725  c-4.513,0-8.17,3.658-8.17,8.17v479.119C71.555,500.915,82.64,512,96.266,512h319.468c13.626,0,24.711-11.085,24.711-24.711V8.17  C440.444,3.658,436.786,0,432.274,0z M424.104,487.289c0,4.616-3.755,8.371-8.371,8.371H96.265c-4.615,0-8.371-3.755-8.371-8.371  V16.34h54.267v148.021c0,4.512,3.657,8.17,8.17,8.17h211.336c4.513,0,8.17-3.658,8.17-8.17V16.34h54.267V487.289z" data-original="#000000" class="active-path" style="fill:#555555" data-old_color="#111111"></path></g> </svg>
